D:\school\WTK\thesis\model\3dpredictsim\Results\Batchsim_tmt_linear\Pog_s1_tmt_bCst_d00_k800_ig24_pas_GRF.mot
nRows=17
nColumns=19

name D:\school\WTK\thesis\model\3dpredictsim\Results\Batchsim_tmt_linear\Pog_s1_tmt_bCst_d00_k800_ig24_pas_GRF.mot
datacolumns 19
datarows 17
range 0.0000000000 0.1774908421
endheader
time 	ground_force_vx	ground_force_vy	ground_force_vz	ground_force_px	ground_force_py	ground_force_pz	1_ground_force_vx	1_ground_force_vy	1_ground_force_vz	1_ground_force_px	1_ground_force_py	1_ground_force_pz	ground_torque_x	ground_torque_y	ground_torque_z	1_ground_torque_x	1_ground_torque_y	1_ground_torque_z
        0.0000000000	      -94.4367172447	       89.1702721400	       43.1189838259	        0.1702058917	        0.0000000000	        0.0376158069	       94.6777880399	      473.5924661832	       -4.9196125940	       -0.3198442938	        0.0000000000	       -0.0346988351	        0.0000000000	        0.0000000000	        0.0000000000	        0.0000000000	        0.0000000000	        0.0000000000	
        0.0110931776	      -89.5233102095	      188.7641057912	       78.8101281138	        0.1761917777	        0.0000000000	        0.0357880654	       76.3764947091	      389.9935580832	      -10.4402604501	       -0.3157569546	        0.0000000000	       -0.0335092052	        0.0000000000	        0.0000000000	        0.0000000000	        0.0000000000	        0.0000000000	        0.0000000000	
        0.0221863553	      -47.1197648108	      345.0648134010	       17.9014976627	        0.1800439256	        0.0000000000	        0.0338835693	       56.0228708364	      302.1397490595	       -7.8108336333	       -0.3094130734	        0.0000000000	       -0.0310270597	        0.0000000000	        0.0000000000	        0.0000000000	        0.0000000000	        0.0000000000	        0.0000000000	
        0.0332795329	      -49.0817604119	      506.4846222027	       -1.3300708617	        0.1846968078	        0.0000000000	        0.0345984369	       27.8086855359	      200.1498095456	       -6.1443348237	       -0.2970736605	        0.0000000000	       -0.0254549933	        0.0000000000	        0.0000000000	        0.0000000000	        0.0000000000	        0.0000000000	        0.0000000000	
        0.0443727105	      -83.5627503063	      684.7969049583	       -8.9609964429	        0.1927955078	        0.0000000000	        0.0370611945	        8.2508548527	      138.2468012526	      -10.4750037071	       -0.2837265871	        0.0000000000	       -0.0185693111	        0.0000000000	        0.0000000000	        0.0000000000	        0.0000000000	        0.0000000000	        0.0000000000	
        0.0554658881	     -106.6017098792	      800.9645704132	      -12.3569565061	        0.1985961392	        0.0000000000	        0.0387334258	        1.5426286393	      109.0177780182	      -11.6456931030	       -0.2838827620	        0.0000000000	       -0.0188858206	        0.0000000000	        0.0000000000	        0.0000000000	        0.0000000000	        0.0000000000	        0.0000000000	
        0.0665590658	     -111.8477105463	      844.4057098043	      -13.4879924115	        0.2025858417	        0.0000000000	        0.0397505429	       -2.1621585815	       71.4962790430	      -10.7049501013	       -0.2833863982	        0.0000000000	       -0.0189370955	        0.0000000000	        0.0000000000	        0.0000000000	        0.0000000000	        0.0000000000	        0.0000000000	
        0.0776522434	     -107.4056301270	      841.8834061525	      -13.6955016728	        0.2056645779	        0.0000000000	        0.0403588566	       -8.0674607657	       29.6688584938	       -5.7733344502	       -0.2836870775	        0.0000000000	       -0.0187604713	        0.0000000000	        0.0000000000	        0.0000000000	        0.0000000000	        0.0000000000	        0.0000000000	
        0.0887454210	      -98.0230673789	      823.1912066306	      -14.0391604825	        0.2086865548	        0.0000000000	        0.0406873526	        0.1011149255	       -0.1007492706	        0.0025223785	        0.0000000000	        0.0000000000	        0.0000000000	        0.0000000000	        0.0000000000	        0.0000000000	        0.0000000000	        0.0000000000	        0.0000000000	
        0.0998385987	      -85.8821975193	      793.9707530032	      -14.8476504406	        0.2118959706	        0.0000000000	        0.0408338495	        0.0001017594	       -0.0000830543	       -0.0000056968	        0.0000000000	        0.0000000000	        0.0000000000	        0.0000000000	        0.0000000000	        0.0000000000	        0.0000000000	        0.0000000000	        0.0000000000	
        0.1109317763	      -73.9219733820	      758.9104684304	      -15.0981812482	        0.2153857977	        0.0000000000	        0.0409063737	        0.0000384825	       -0.0000272985	       -0.0000028369	        0.0000000000	        0.0000000000	        0.0000000000	        0.0000000000	        0.0000000000	        0.0000000000	        0.0000000000	        0.0000000000	        0.0000000000	
        0.1220249539	      -64.1925038839	      727.5097413133	      -15.1998118952	        0.2196055234	        0.0000000000	        0.0408551080	        0.0003695740	       -0.0002348401	       -0.0000304064	        0.0000000000	        0.0000000000	        0.0000000000	        0.0000000000	        0.0000000000	        0.0000000000	        0.0000000000	        0.0000000000	        0.0000000000	
        0.1331181316	      -54.8585613401	      697.8207523082	      -15.7356650573	        0.2240246465	        0.0000000000	        0.0407577440	        0.0051559325	       -0.0030004662	       -0.0004493357	        0.0000000000	        0.0000000000	        0.0000000000	        0.0000000000	        0.0000000000	        0.0000000000	        0.0000000000	        0.0000000000	        0.0000000000	
        0.1442113092	      -45.6207972518	      669.1902475928	      -16.2611020073	        0.2283594425	        0.0000000000	        0.0407085648	       -0.0250654655	        0.0135522387	        0.0022725400	        0.0000000000	        0.0000000000	        0.0000000000	        0.0000000000	        0.0000000000	        0.0000000000	        0.0000000000	        0.0000000000	        0.0000000000	
        0.1553044868	      -37.6102714153	      643.6848699300	      -16.7787179611	        0.2327429492	        0.0000000000	        0.0407118976	       -0.0175522357	        0.0089171148	        0.0016421415	        0.0000000000	        0.0000000000	        0.0000000000	        0.0000000000	        0.0000000000	        0.0000000000	        0.0000000000	        0.0000000000	        0.0000000000	
        0.1663976644	      -30.9897237568	      622.4633496740	      -17.4104947915	        0.2371426341	        0.0000000000	        0.0407440378	       -0.0124030266	        0.0059749892	        0.0011907946	        0.0000000000	        0.0000000000	        0.0000000000	        0.0000000000	        0.0000000000	        0.0000000000	        0.0000000000	        0.0000000000	        0.0000000000	
        0.1774908421	      -25.3474688947	      605.6575768183	      -17.9212710025	        0.2416354731	        0.0000000000	        0.0407923242	       -0.0113958066	        0.0052460389	        0.0011135823	        0.0000000000	        0.0000000000	        0.0000000000	        0.0000000000	        0.0000000000	        0.0000000000	        0.0000000000	        0.0000000000	        0.0000000000	
